<svg width="61" height="61" xmlns="http://www.w3.org/2000/svg" fill="none"><g><title>Layer 1</title><path id="svg_1" fill="#00DC82" d="m34.13795,49.539l22.5276,0c0.7155,0 1.4185,-0.1826 2.0381,-0.5297c0.6197,-0.347 1.1342,-0.8462 1.4918,-1.4474c0.3576,-0.6011 0.5457,-1.283 0.5454,-1.977c-0.0003,-0.6941 -0.189,-1.3758 -0.5472,-1.9766l-15.1289,-25.4179c-0.3576,-0.601 -0.872,-1.10008 -1.4915,-1.44708c-0.6195,-0.347 -1.3223,-0.52969 -2.0377,-0.52969c-0.7154,0 -1.4181,0.18269 -2.0377,0.52969c-0.6195,0.347 -1.1339,0.84608 -1.4915,1.44708l-3.8684,6.5035l-7.5633,-12.71742c-0.3579,-0.60095 -0.8725,-1.09996 -1.4922,-1.4469c-0.6197,-0.34694 -1.3226,-0.52958 -2.0381,-0.52958c-0.7155,0 -1.4184,0.18264 -2.0381,0.52958c-0.6197,0.34694 -1.1343,0.84595 -1.4922,1.4469l-18.82602,31.63182c-0.35815,0.6008 -0.54687,1.2825 -0.54718,1.9766c-0.00031,0.694 0.1878,1.3759 0.54541,1.977c0.35761,0.6012 0.87211,1.1004 1.49176,1.4474c0.61964,0.3471 1.32258,0.5297 2.03811,0.5297l14.14092,0c5.6028,0 9.7347,-2.3872 12.5778,-7.0445l6.9025,-11.5952l3.6971,-6.2054l11.0959,18.6396l-14.793,0l-3.6994,6.2055zm-16.0114,-6.2118l-9.86859,-0.0022l14.79299,-24.85138l7.3811,12.42568l-4.942,8.3051c-1.8881,3.0218 -4.033,4.1228 -7.3635,4.1228z"/></g></svg>