<svg width="512" height="512" viewBox="0 0 512 512" xmlns="http://www.w3.org/2000/svg"><mask id="satori_om-id"><rect x="0" y="0" width="512" height="512" fill="#fff"/></mask><path x="0" y="0" width="512" height="512" fill="#16110b" d="M143,0 h226 a143,143 0 0 1 143,143 v226 a143,143 0 0 1 -143,143 h-226 a143,143 0 0 1 -143,-143 v-226 a143,143 0 0 1 143,-143"/><g  ><path fill="#aee03a" d="M255.9 365.4L255.9 365.4Q235.6 365.4 219.2 361.6Q202.7 357.8 190.6 350.1Q178.6 342.3 171.6 330.3Q164.6 318.2 163.4 302.4L163.4 302.4L208.1 287.5Q209.0 300.8 215.7 309.6Q222.3 318.5 233.6 322.8Q244.8 327.1 258.8 327.1L258.8 327.1Q272.1 327.1 281.1 323.8Q290.2 320.4 294.8 315.2Q299.4 310.0 299.4 303.9L299.4 303.9Q299.4 297.0 293.3 292.4Q287.3 287.8 276.8 284.4Q266.4 281.1 252.4 277.9L252.4 277.9Q236.6 274.1 221.4 269.7Q206.2 265.3 193.8 258.1Q181.4 251.0 174.3 239.7Q167.2 228.5 167.2 211.4L167.2 211.4Q167.2 192.0 177.0 177.8Q186.8 163.5 205.8 155.4Q224.9 147.3 252.8 147.3L252.8 147.3Q280.3 147.3 299.7 155.3Q319.0 163.2 329.5 177.3Q339.9 191.4 340.9 210.1L340.9 210.1L295.2 223.1Q295.2 213.9 292.2 206.9Q289.2 200.0 283.8 195.4Q278.4 190.8 270.5 188.4Q262.6 186.0 252.4 186.0L252.4 186.0Q240.4 186.0 232.0 188.9Q223.6 191.7 219.5 196.3Q215.4 200.9 215.4 206.9L215.4 206.9Q215.4 214.5 221.8 219.5Q228.3 224.4 239.6 227.7Q250.9 231.0 264.5 234.2L264.5 234.2Q278.1 237.1 292.7 241.3Q307.3 245.6 320.0 252.6Q332.6 259.6 340.4 271.4Q348.2 283.3 348.2 301.4L348.2 301.4Q348.2 320.7 337.9 335.2Q327.6 349.6 307.0 357.5Q286.4 365.4 255.9 365.4Z "/></g></svg>